# xmcd
#
# Track frame offsets: 
#        150
#        31838
#        62190
#        88385
#        107881
#        133886
#        157083
#        182741
#        192531
#        216520
#        240652
#        266220
#        291994
#        319684
#
# Disc length: 4443 seconds
#
# Revision: 0
# Processed by: cddbd v1.5.1PL0 Copyright (c) Steve Scherf et al.
# Submitted via: ExactAudioCopy v0.95a5
#
DISCID=e611590e
DTITLE=Various Artist - Пиратская Станция III [русская  версия]
DYEAR=2005
DGENRE=Drum&Bass
TTITLE0=Bad Girl and Bad MF - Let It Be [Proket remix]
TTITLE1=3'0'3 Project - Make Some Noise
TTITLE2=Sky - Kiss My Eyes [Vip Version]
TTITLE3=SLK - Showbiznes
TTITLE4=Blasta - Love Me
TTITLE5=Deezel Feat.63 Region - Bitch
TTITLE6=Skyform - Don't Be Quiet
TTITLE7=Bad MF and Bad Girl - Night And Day [SLK Remix]
TTITLE8=Up In Smoke - Yo Guns Go Pau
TTITLE9=T.Half - Method
TTITLE10=Dissident and Cryo - Pop Art
TTITLE11=E:beat - Chance To Have Chance [Buzzile aka Art D.Jay Remix]
TTITLE12=Mister Maloi and Tru Kupchino Ba - Budu Pegihat' Molodim [VIP]
TTITLE13=X-mode во Nil - Animals
EXTD=
EXTT0=
EXTT1=
EXTT2=
EXTT3=
EXTT4=
EXTT5=
EXTT6=
EXTT7=
EXTT8=
EXTT9=
EXTT10=
EXTT11=
EXTT12=
EXTT13=
PLAYORDER=
